<?xml version="1.0" encoding="utf-8"?>
<!-- Generator: Adobe Illustrator 22.1.0, SVG Export Plug-In . SVG Version: 6.00 Build 0)  -->
<svg version="1.1" id="Capa_1" focusable="false" xmlns="http://www.w3.org/2000/svg" xmlns:xlink="http://www.w3.org/1999/xlink"
	 x="0px" y="0px" viewBox="0 0 496 512" style="enable-background:new 0 0 496 512;" xml:space="preserve">
<style type="text/css">
	.st0{fill:#211915;}
</style>
<path class="st0" d="M225.4,233.4c-12.5,12.5-12.5,32.8,0,45.3c12.5,12.5,32.8,12.5,45.3,0c12.5-12.5,12.5-32.8,0-45.3
	S237.9,220.9,225.4,233.4z M248,8C111,8,0,119,0,256s111,248,248,248s248-111,248-248S385,8,248,8z M374.1,156.1l-66,144.3
	c-3.2,7-8.8,12.6-15.8,15.8l-144.3,66c-16.6,7.6-33.8-9.5-26.2-26.2l66-144.4c3.2-7,8.8-12.6,15.8-15.8l144.3-66
	C364.6,122.2,381.8,139.4,374.1,156.1L374.1,156.1z"/>
</svg>
