<?xml version="1.0" encoding="utf-8"?>
<!-- Generator: Adobe Illustrator 22.1.0, SVG Export Plug-In . SVG Version: 6.00 Build 0)  -->
<svg version="1.1" id="Capa_1" focusable="false" xmlns="http://www.w3.org/2000/svg" xmlns:xlink="http://www.w3.org/1999/xlink"
	 x="0px" y="0px" viewBox="0 0 496 512" style="enable-background:new 0 0 496 512;" xml:space="preserve">
<style type="text/css">
	.st0{fill:#211915;}
</style>
<g>
	<path class="st0" d="M363.4,298.7c19.7,22.3,31.6,51.6,31.6,83.7c0,69.8-56.7,126.5-126.5,126.5c-0.2,0-0.6,0-0.9,0
		c-69.4-0.5-126-57.7-125.6-127.1c0.1-31.9,12-60.9,31.6-82.9v-201c0-52.4,42.5-95,94.9-95s94.9,42.5,94.9,94.9V298.7z M347.6,382.4
		c0-34-19.1-51.6-31.6-65.7V97.8c0-26.2-21.3-47.5-47.5-47.5c-26.2,0-47.4,21.3-47.4,47.5v218.8c-12.5,14.3-31.5,31.7-31.6,65.3
		c-0.2,43.4,35.1,79.1,78.5,79.5h0.6C312.1,461.5,347.6,426,347.6,382.4z M289,340.9V232.6c0-9.1-9.2-23.7-20.4-23.7
		c-11.3,0-19.8,14.2-19.8,23.3L248,340.9c-23.8,6.8-32.8,26.3-32.8,48c0,27.5,19.3,48.6,53.3,48.6s54.5-22.1,54.5-49.6
		C323,366.2,312.8,347.7,289,340.9z"/>
</g>
</svg>
