<?xml version="1.0" encoding="utf-8"?>
<!-- Generator: Adobe Illustrator 22.1.0, SVG Export Plug-In . SVG Version: 6.00 Build 0)  -->
<svg version="1.1" id="Capa_1" xmlns="http://www.w3.org/2000/svg" xmlns:xlink="http://www.w3.org/1999/xlink" x="0px" y="0px"
	 viewBox="0 0 511.4 511.4" style="enable-background:new 0 0 511.4 511.4;" xml:space="preserve">
<style type="text/css">
	.st0{fill:#211915;}
</style>
<g>
	<g>
		<circle class="st0" cx="303.7" cy="399.4" r="16"/>
	</g>
</g>
<g>
	<g>
		<circle class="st0" cx="207.7" cy="239.4" r="16"/>
	</g>
</g>
<g>
	<g>
		<path class="st0" d="M336.1,111.9C311.8,78.6,286.6,44.1,266.4,7c-5.4-9.8-20.3-9.8-25.6,0c-20.3,37-45.4,71.5-69.8,104.9
			c-49.3,67.7-95.9,131.6-95.9,207.2c0,105.9,80,192,178.5,192S432,425.1,432,319.2C432,243.6,385.4,179.6,336.1,111.9z
			 M208.9,191.2c24.6,0,44.6,21.5,44.6,48s-20,48-44.6,48s-44.6-21.5-44.6-48S184.3,191.2,208.9,191.2z M189.7,410.5
			c-2.9,3.1-6.7,4.7-10.5,4.7c-3.8,0-7.6-1.6-10.5-4.7c-5.8-6.2-5.8-16.4,0-22.6l148.7-160c5.8-6.2,15.2-6.2,21,0s5.8,16.4,0,22.6
			L189.7,410.5z M298.2,447.2c-24.6,0-44.6-21.5-44.6-48s20-48,44.6-48s44.6,21.5,44.6,48S322.8,447.2,298.2,447.2z"/>
	</g>
</g>
</svg>
