<?xml version="1.0" encoding="utf-8"?>
<!-- Generator: Adobe Illustrator 22.1.0, SVG Export Plug-In . SVG Version: 6.00 Build 0)  -->
<svg version="1.1" id="Capa_1" focusable="false" xmlns="http://www.w3.org/2000/svg" xmlns:xlink="http://www.w3.org/1999/xlink"
	 x="0px" y="0px" viewBox="0 0 496 512" style="enable-background:new 0 0 496 512;" xml:space="preserve">
<style type="text/css">
	.st0{fill:#211915;}
</style>
<g>
	<path class="st0" d="M363.5,298.8c19.7,22.3,31.6,51.6,31.6,83.7c0,69.8-56.7,126.5-126.5,126.5c-0.2,0-0.6,0-0.9,0
		c-69.4-0.5-126-57.7-125.6-127.1c0.1-31.9,12-60.9,31.6-82.9V98c0-52.4,42.5-95,94.9-95s94.9,42.5,94.9,94.9V298.8z M347.7,382.5
		c0-34-19.1-51.6-31.6-65.7V97.9c0-26.2-21.3-47.5-47.5-47.5c-26.2,0-47.4,21.3-47.4,47.5v218.8c-12.5,14.3-31.5,31.7-31.6,65.3
		c-0.2,43.4,35.1,79.1,78.5,79.5h0.6C312.2,461.6,347.7,426.1,347.7,382.5z M287.1,330.4L287.1,330.4c-3.8-1.7-8.3-3.4-18.5-3.4
		c-10.2,0-12,1.7-18.5,3.4l0,0c-21.5,7.4-37,27.1-37,50.5c0,29.7,24.9,53.8,55.5,53.8s55.5-24.1,55.5-53.8
		C324.1,357.5,308.6,337.8,287.1,330.4z"/>
</g>
</svg>
