<?xml version="1.0" encoding="utf-8"?>
<!-- Generator: Adobe Illustrator 22.1.0, SVG Export Plug-In . SVG Version: 6.00 Build 0)  -->
<svg version="1.1" id="Capa_1" xmlns="http://www.w3.org/2000/svg" xmlns:xlink="http://www.w3.org/1999/xlink" x="0px" y="0px"
	 viewBox="0 0 512 512" style="enable-background:new 0 0 512 512;" xml:space="preserve">
<style type="text/css">
	.st0{stroke:#000000;stroke-width:17;stroke-miterlimit:10;}
</style>
<g>
	<g>
		<path class="st0" d="M256.5,114.3c8,0,14.4-6.7,14.4-15V31c0-8.3-6.5-15-14.4-15c-8,0-14.4,6.7-14.4,15v68.3
			C242.1,107.6,248.5,114.3,256.5,114.3z"/>
		<path class="st0" d="M488.6,257h-65.8c-8,0-14.4,6.7-14.4,15s6.5,15,14.4,15h65.8c8,0,14.4-6.7,14.4-15S496.5,257,488.6,257z"/>
		<path class="st0" d="M104.6,272c0-8.3-6.5-15-14.4-15H24.4c-8,0-14.4,6.7-14.4,15s6.5,15,14.4,15h65.8
			C98.2,287,104.6,280.3,104.6,272z"/>
		<path class="st0" d="M391.2,147.9c3.7,0,7.4-1.5,10.2-4.4l35.5-36.9c5.6-5.9,5.6-15.4,0-21.2c-5.6-5.9-14.8-5.9-20.4,0L381,122.3
			c-5.6,5.9-5.6,15.4,0,21.2C383.8,146.4,387.5,147.9,391.2,147.9L391.2,147.9z"/>
		<path class="st0" d="M111.6,143.5c2.8,2.9,6.5,4.4,10.2,4.4s7.4-1.5,10.2-4.4c5.6-5.9,5.6-15.4,0-21.2L96.5,85.5
			c-5.6-5.9-14.8-5.9-20.4,0c-5.6,5.9-5.6,15.4,0,21.2L111.6,143.5z"/>
		<path class="st0" d="M434.8,322h-63.3c6.4-15.8,9.7-32.8,9.7-50c0-71.4-55.9-129.5-124.7-129.5S131.8,200.6,131.8,272
			c0,17.3,3.3,34.3,9.7,50H78.2c-8,0-14.4,6.7-14.4,15s6.5,15,14.4,15h356.5c8,0,14.4-6.7,14.4-15S442.7,322,434.8,322z M160.7,272
			c0-54.9,43-99.5,95.8-99.5s95.8,44.6,95.8,99.5c0,17.7-4.5,34.9-13,50H173.7C165.2,306.9,160.7,289.6,160.7,272L160.7,272z"/>
	</g>
	<path class="st0" d="M347.2,380.6H165.8c-8,0-14.4,6.7-14.4,15s6.5,15,14.4,15h181.5c8,0,14.4-6.7,14.4-15S355.2,380.6,347.2,380.6
		z"/>
</g>
</svg>
