<?xml version="1.0" encoding="utf-8"?>
<!-- Generator: Adobe Illustrator 22.1.0, SVG Export Plug-In . SVG Version: 6.00 Build 0)  -->
<svg version="1.1" id="Capa_1" xmlns="http://www.w3.org/2000/svg" xmlns:xlink="http://www.w3.org/1999/xlink" x="0px" y="0px"
	 viewBox="0 0 368 368" style="enable-background:new 0 0 368 368;" xml:space="preserve">
<style type="text/css">
	.st0{stroke:#000000;stroke-width:21;stroke-miterlimit:10;}
	.st1{stroke:#000000;stroke-width:20;stroke-miterlimit:10;}
</style>
<g>
	<g>
		<path class="st0" d="M347.6,340.4h-52.1c-1.7-25.1-11.6-47.9-27.2-65.7l40.1-40.3c2.9-2.9,2.9-7.6,0-10.5s-7.6-2.9-10.5,0
			l-40,40.3c-17.8-15.6-40.5-25.6-65.5-27.2v-52.4c0-4.1-3.3-7.4-7.4-7.4s-7.4,3.3-7.4,7.4v52.3c-25,1.7-47.7,11.6-65.5,27.2
			L72,223.9c-2.9-2.9-7.6-2.9-10.5,0c-2.9,2.9-2.9,7.6,0,10.5l40.1,40.3c-15.6,17.8-25.5,40.6-27.2,65.7h-52c-4.1,0-7.4,3.3-7.4,7.4
			c0,4.1,3.3,7.4,7.4,7.4h59.1l0,0l0,0h206.9l0,0l0,0h59.1c4.1,0,7.4-3.3,7.4-7.4C355,343.7,351.7,340.4,347.6,340.4z M89.3,340.4
			c3.8-49.7,45.2-89,95.7-89s91.9,39.3,95.7,89H89.3z"/>
	</g>
</g>
<g>
	<g>
		<path class="st1" d="M134.4,65.5c3,2.7,7.7,2.7,10.7,0l32.5-30.1l0,95.2c0,3.9,3.4,7,7.6,7s7.6-3.1,7.6-7l0-95.1l32.5,30.1
			c3,2.7,7.7,2.7,10.7,0c3-2.7,3-7.2,0-9.9l-45.4-42c-0.7-0.7-1.5-1.2-2.5-1.5c-0.9-0.4-1.9-0.5-2.9-0.5s-2,0.2-2.9,0.5
			c-0.9,0.4-1.8,0.9-2.5,1.5l-45.4,42C131.5,58.4,131.5,62.8,134.4,65.5z"/>
	</g>
</g>
</svg>
